<svg width="120" height="152" viewBox="0 0 120 152" fill="none" xmlns="http://www.w3.org/2000/svg">
<circle cx="4" cy="4" r="4" fill="#6228D5" fill-opacity="0.5"/>
<circle cx="20" cy="4" r="4" fill="#6228D5" fill-opacity="0.5"/>
<circle cx="36" cy="4" r="4" fill="#6228D5" fill-opacity="0.5"/>
<circle cx="52" cy="4" r="4" fill="#6228D5" fill-opacity="0.5"/>
<circle cx="68" cy="4" r="4" fill="#6228D5" fill-opacity="0.5"/>
<circle cx="84" cy="4" r="4" fill="#6228D5" fill-opacity="0.5"/>
<circle cx="100" cy="4" r="4" fill="#6228D5" fill-opacity="0.5"/>
<circle cx="116" cy="4" r="4" fill="#6228D5" fill-opacity="0.5"/>
<circle cx="4" cy="20" r="4" fill="#6228D5" fill-opacity="0.5"/>
<circle cx="20" cy="20" r="4" fill="#6228D5" fill-opacity="0.5"/>
<circle cx="36" cy="20" r="4" fill="#6228D5" fill-opacity="0.5"/>
<circle cx="52" cy="20" r="4" fill="#6228D5" fill-opacity="0.5"/>
<circle cx="68" cy="20" r="4" fill="#6228D5" fill-opacity="0.5"/>
<circle cx="84" cy="20" r="4" fill="#6228D5" fill-opacity="0.5"/>
<circle cx="100" cy="20" r="4" fill="#6228D5" fill-opacity="0.5"/>
<circle cx="116" cy="20" r="4" fill="#6228D5" fill-opacity="0.5"/>
<circle cx="4" cy="36" r="4" fill="#6228D5" fill-opacity="0.5"/>
<circle cx="20" cy="36" r="4" fill="#6228D5" fill-opacity="0.5"/>
<circle cx="36" cy="36" r="4" fill="#6228D5" fill-opacity="0.5"/>
<circle cx="52" cy="36" r="4" fill="#6228D5" fill-opacity="0.5"/>
<circle cx="68" cy="36" r="4" fill="#6228D5" fill-opacity="0.5"/>
<circle cx="84" cy="36" r="4" fill="#6228D5" fill-opacity="0.5"/>
<circle cx="100" cy="36" r="4" fill="#6228D5" fill-opacity="0.5"/>
<circle cx="116" cy="36" r="4" fill="#6228D5" fill-opacity="0.5"/>
<circle cx="4" cy="52" r="4" fill="#6228D5" fill-opacity="0.5"/>
<circle cx="20" cy="52" r="4" fill="#6228D5" fill-opacity="0.5"/>
<circle cx="36" cy="52" r="4" fill="#6228D5" fill-opacity="0.5"/>
<circle cx="52" cy="52" r="4" fill="#6228D5" fill-opacity="0.5"/>
<circle cx="68" cy="52" r="4" fill="#6228D5" fill-opacity="0.5"/>
<circle cx="84" cy="52" r="4" fill="#6228D5" fill-opacity="0.5"/>
<circle cx="100" cy="52" r="4" fill="#6228D5" fill-opacity="0.5"/>
<circle cx="116" cy="52" r="4" fill="#6228D5" fill-opacity="0.5"/>
<circle cx="4" cy="68" r="4" fill="#6228D5" fill-opacity="0.5"/>
<circle cx="20" cy="68" r="4" fill="#6228D5" fill-opacity="0.5"/>
<circle cx="36" cy="68" r="4" fill="#6228D5" fill-opacity="0.5"/>
<circle cx="52" cy="68" r="4" fill="#6228D5" fill-opacity="0.5"/>
<circle cx="68" cy="68" r="4" fill="#6228D5" fill-opacity="0.5"/>
<circle cx="84" cy="68" r="4" fill="#6228D5" fill-opacity="0.5"/>
<circle cx="100" cy="68" r="4" fill="#6228D5" fill-opacity="0.5"/>
<circle cx="116" cy="68" r="4" fill="#6228D5" fill-opacity="0.5"/>
<circle cx="4" cy="84" r="4" fill="#6228D5" fill-opacity="0.5"/>
<circle cx="20" cy="84" r="4" fill="#6228D5" fill-opacity="0.5"/>
<circle cx="36" cy="84" r="4" fill="#6228D5" fill-opacity="0.5"/>
<circle cx="52" cy="84" r="4" fill="#6228D5" fill-opacity="0.5"/>
<circle cx="68" cy="84" r="4" fill="#6228D5" fill-opacity="0.5"/>
<circle cx="84" cy="84" r="4" fill="#6228D5" fill-opacity="0.5"/>
<circle cx="100" cy="84" r="4" fill="#6228D5" fill-opacity="0.5"/>
<circle cx="116" cy="84" r="4" fill="#6228D5" fill-opacity="0.5"/>
<circle cx="4" cy="100" r="4" fill="#6228D5" fill-opacity="0.5"/>
<circle cx="4" cy="116" r="4" fill="#6228D5" fill-opacity="0.5"/>
<circle cx="4" cy="132" r="4" fill="#6228D5" fill-opacity="0.5"/>
<circle cx="4" cy="148" r="4" fill="#6228D5" fill-opacity="0.5"/>
<circle cx="20" cy="100" r="4" fill="#6228D5" fill-opacity="0.5"/>
<circle cx="20" cy="116" r="4" fill="#6228D5" fill-opacity="0.5"/>
<circle cx="20" cy="132" r="4" fill="#6228D5" fill-opacity="0.5"/>
<circle cx="20" cy="148" r="4" fill="#6228D5" fill-opacity="0.5"/>
<circle cx="36" cy="100" r="4" fill="#6228D5" fill-opacity="0.5"/>
<circle cx="36" cy="116" r="4" fill="#6228D5" fill-opacity="0.5"/>
<circle cx="36" cy="132" r="4" fill="#6228D5" fill-opacity="0.5"/>
<circle cx="36" cy="148" r="4" fill="#6228D5" fill-opacity="0.5"/>
<circle cx="52" cy="100" r="4" fill="#6228D5" fill-opacity="0.5"/>
<circle cx="52" cy="116" r="4" fill="#6228D5" fill-opacity="0.5"/>
<circle cx="52" cy="132" r="4" fill="#6228D5" fill-opacity="0.5"/>
<circle cx="52" cy="148" r="4" fill="#6228D5" fill-opacity="0.5"/>
<circle cx="68" cy="100" r="4" fill="#6228D5" fill-opacity="0.5"/>
<circle cx="68" cy="116" r="4" fill="#6228D5" fill-opacity="0.5"/>
<circle cx="68" cy="132" r="4" fill="#6228D5" fill-opacity="0.5"/>
<circle cx="68" cy="148" r="4" fill="#6228D5" fill-opacity="0.5"/>
<circle cx="84" cy="100" r="4" fill="#6228D5" fill-opacity="0.5"/>
<circle cx="84" cy="116" r="4" fill="#6228D5" fill-opacity="0.5"/>
<circle cx="84" cy="132" r="4" fill="#6228D5" fill-opacity="0.5"/>
<circle cx="84" cy="148" r="4" fill="#6228D5" fill-opacity="0.5"/>
<circle cx="100" cy="100" r="4" fill="#6228D5" fill-opacity="0.5"/>
<circle cx="100" cy="116" r="4" fill="#6228D5" fill-opacity="0.5"/>
<circle cx="100" cy="132" r="4" fill="#6228D5" fill-opacity="0.5"/>
<circle cx="100" cy="148" r="4" fill="#6228D5" fill-opacity="0.5"/>
<circle cx="116" cy="100" r="4" fill="#6228D5" fill-opacity="0.5"/>
<circle cx="116" cy="116" r="4" fill="#6228D5" fill-opacity="0.5"/>
<circle cx="116" cy="132" r="4" fill="#6228D5" fill-opacity="0.5"/>
<circle cx="116" cy="148" r="4" fill="#6228D5" fill-opacity="0.5"/>
</svg>
